<svg xmlns="http://www.w3.org/2000/svg" width="860" height="742" viewBox="0 0 860 742" font-family="ui-sans-serif, system-ui, -apple-system, 'Segoe UI', sans-serif">
<rect x="0" y="0" width="860" height="742" fill="#ffffff" rx="8" stroke="#d0d7de"/>
<text x="20" y="30" font-size="16" fill="#1f2328" text-anchor="start" font-weight="600">Execution time relative to C (clang -O2) &#8212; lower is better</text>
<text x="20" y="50" font-size="12" fill="#57606a" text-anchor="start" font-weight="400">RP2040 @ 12 MHz &#183; medians of 3 runs &#183; checksums verified across all four languages</text>
<rect x="737" y="22" width="10" height="10" fill="#94A3B8" rx="2"/>
<text x="751" y="31" font-size="11" fill="#57606a" text-anchor="start" font-weight="400">C (gcc -O2)</text>
<rect x="641" y="22" width="10" height="10" fill="#DEA584" rx="2"/>
<text x="655" y="31" font-size="11" fill="#57606a" text-anchor="start" font-weight="400">Rust (-O2)</text>
<rect x="524" y="22" width="10" height="10" fill="#3E7CB1" rx="2"/>
<text x="538" y="31" font-size="11" fill="#57606a" text-anchor="start" font-weight="400">C (clang -O2)</text>
<rect x="470" y="22" width="10" height="10" fill="#F74C00" rx="2"/>
<text x="484" y="31" font-size="11" fill="#57606a" text-anchor="start" font-weight="400">Mojo</text>
<text x="238" y="110" font-size="12" fill="#1f2328" text-anchor="end" font-weight="400">100k GPIO toggles (SIO XOR)</text>
<rect x="250" y="78" width="101" height="12" fill="#F74C00" rx="2"/>
<text x="357" y="88" font-size="10" fill="#57606a" text-anchor="start" font-weight="400">1.00&#215;</text>
<rect x="250" y="92" width="101" height="12" fill="#3E7CB1" rx="2"/>
<text x="357" y="102" font-size="10" fill="#57606a" text-anchor="start" font-weight="400">1.00&#215;</text>
<rect x="250" y="106" width="101" height="12" fill="#DEA584" rx="2"/>
<text x="357" y="116" font-size="10" fill="#57606a" text-anchor="start" font-weight="400">1.00&#215;</text>
<rect x="250" y="120" width="480" height="12" fill="#94A3B8" rx="2"/>
<text x="736" y="130" font-size="10" fill="#57606a" text-anchor="start" font-weight="400">4.72&#215;</text>
<text x="238" y="180" font-size="12" fill="#1f2328" text-anchor="end" font-weight="400">200k xorshift32 rounds</text>
<rect x="250" y="148" width="101" height="12" fill="#F74C00" rx="2"/>
<text x="357" y="158" font-size="10" fill="#57606a" text-anchor="start" font-weight="400">1.00&#215;</text>
<rect x="250" y="162" width="101" height="12" fill="#3E7CB1" rx="2"/>
<text x="357" y="172" font-size="10" fill="#57606a" text-anchor="start" font-weight="400">1.00&#215;</text>
<rect x="250" y="176" width="101" height="12" fill="#DEA584" rx="2"/>
<text x="357" y="186" font-size="10" fill="#57606a" text-anchor="start" font-weight="400">1.00&#215;</text>
<rect x="250" y="190" width="165" height="12" fill="#94A3B8" rx="2"/>
<text x="421" y="200" font-size="10" fill="#57606a" text-anchor="start" font-weight="400">1.63&#215;</text>
<text x="238" y="250" font-size="12" fill="#1f2328" text-anchor="end" font-weight="400">50k u32 divisions (software)</text>
<rect x="250" y="218" width="99" height="12" fill="#F74C00" rx="2"/>
<text x="355" y="228" font-size="10" fill="#57606a" text-anchor="start" font-weight="400">0.98&#215;</text>
<rect x="250" y="232" width="101" height="12" fill="#3E7CB1" rx="2"/>
<text x="357" y="242" font-size="10" fill="#57606a" text-anchor="start" font-weight="400">1.00&#215;</text>
<rect x="250" y="246" width="192" height="12" fill="#DEA584" rx="2"/>
<text x="448" y="256" font-size="10" fill="#57606a" text-anchor="start" font-weight="400">1.89&#215;</text>
<rect x="250" y="260" width="100" height="12" fill="#94A3B8" rx="2"/>
<text x="356" y="270" font-size="10" fill="#57606a" text-anchor="start" font-weight="400">0.99&#215;</text>
<text x="238" y="320" font-size="12" fill="#1f2328" text-anchor="end" font-weight="400">20k float32 mul-adds (soft-float)</text>
<rect x="250" y="288" width="102" height="12" fill="#F74C00" rx="2"/>
<text x="358" y="298" font-size="10" fill="#57606a" text-anchor="start" font-weight="400">1.00&#215;</text>
<rect x="250" y="302" width="101" height="12" fill="#3E7CB1" rx="2"/>
<text x="357" y="312" font-size="10" fill="#57606a" text-anchor="start" font-weight="400">1.00&#215;</text>
<rect x="250" y="316" width="89" height="12" fill="#DEA584" rx="2"/>
<text x="345" y="326" font-size="10" fill="#57606a" text-anchor="start" font-weight="400">0.88&#215;</text>
<rect x="250" y="330" width="103" height="12" fill="#94A3B8" rx="2"/>
<text x="359" y="340" font-size="10" fill="#57606a" text-anchor="start" font-weight="400">1.02&#215;</text>
<text x="238" y="390" font-size="12" fill="#1f2328" text-anchor="end" font-weight="400">100k noinline function calls</text>
<rect x="250" y="358" width="101" height="12" fill="#F74C00" rx="2"/>
<text x="357" y="368" font-size="10" fill="#57606a" text-anchor="start" font-weight="400">1.00&#215;</text>
<rect x="250" y="372" width="101" height="12" fill="#3E7CB1" rx="2"/>
<text x="357" y="382" font-size="10" fill="#57606a" text-anchor="start" font-weight="400">1.00&#215;</text>
<rect x="250" y="386" width="180" height="12" fill="#DEA584" rx="2"/>
<text x="436" y="396" font-size="10" fill="#57606a" text-anchor="start" font-weight="400">1.78&#215;</text>
<rect x="250" y="400" width="113" height="12" fill="#94A3B8" rx="2"/>
<text x="369" y="410" font-size="10" fill="#57606a" text-anchor="start" font-weight="400">1.11&#215;</text>
<text x="238" y="460" font-size="12" fill="#1f2328" text-anchor="end" font-weight="400">CRC-32 over 4 KB x4 (bitwise)</text>
<rect x="250" y="428" width="86" height="12" fill="#F74C00" rx="2"/>
<text x="342" y="438" font-size="10" fill="#57606a" text-anchor="start" font-weight="400">0.85&#215;</text>
<rect x="250" y="442" width="101" height="12" fill="#3E7CB1" rx="2"/>
<text x="357" y="452" font-size="10" fill="#57606a" text-anchor="start" font-weight="400">1.00&#215;</text>
<rect x="250" y="456" width="89" height="12" fill="#DEA584" rx="2"/>
<text x="345" y="466" font-size="10" fill="#57606a" text-anchor="start" font-weight="400">0.88&#215;</text>
<rect x="250" y="470" width="142" height="12" fill="#94A3B8" rx="2"/>
<text x="398" y="480" font-size="10" fill="#57606a" text-anchor="start" font-weight="400">1.40&#215;</text>
<text x="238" y="530" font-size="12" fill="#1f2328" text-anchor="end" font-weight="400">quicksort 512 u32 x20</text>
<rect x="250" y="498" width="114" height="12" fill="#F74C00" rx="2"/>
<text x="370" y="508" font-size="10" fill="#57606a" text-anchor="start" font-weight="400">1.13&#215;</text>
<rect x="250" y="512" width="101" height="12" fill="#3E7CB1" rx="2"/>
<text x="357" y="522" font-size="10" fill="#57606a" text-anchor="start" font-weight="400">1.00&#215;</text>
<rect x="250" y="526" width="101" height="12" fill="#DEA584" rx="2"/>
<text x="357" y="536" font-size="10" fill="#57606a" text-anchor="start" font-weight="400">1.00&#215;</text>
<rect x="250" y="540" width="81" height="12" fill="#94A3B8" rx="2"/>
<text x="337" y="550" font-size="10" fill="#57606a" text-anchor="start" font-weight="400">0.80&#215;</text>
<text x="238" y="600" font-size="12" fill="#1f2328" text-anchor="end" font-weight="400">16x16 u32 matmul x50</text>
<rect x="250" y="568" width="88" height="12" fill="#F74C00" rx="2"/>
<text x="344" y="578" font-size="10" fill="#57606a" text-anchor="start" font-weight="400">0.87&#215;</text>
<rect x="250" y="582" width="101" height="12" fill="#3E7CB1" rx="2"/>
<text x="357" y="592" font-size="10" fill="#57606a" text-anchor="start" font-weight="400">1.00&#215;</text>
<rect x="250" y="596" width="88" height="12" fill="#DEA584" rx="2"/>
<text x="344" y="606" font-size="10" fill="#57606a" text-anchor="start" font-weight="400">0.87&#215;</text>
<rect x="250" y="610" width="123" height="12" fill="#94A3B8" rx="2"/>
<text x="379" y="620" font-size="10" fill="#57606a" text-anchor="start" font-weight="400">1.22&#215;</text>
<text x="238" y="670" font-size="12" fill="#1f2328" text-anchor="end" font-weight="400">recursive fib(24)</text>
<rect x="250" y="638" width="97" height="12" fill="#F74C00" rx="2"/>
<text x="353" y="648" font-size="10" fill="#57606a" text-anchor="start" font-weight="400">0.96&#215;</text>
<rect x="250" y="652" width="101" height="12" fill="#3E7CB1" rx="2"/>
<text x="357" y="662" font-size="10" fill="#57606a" text-anchor="start" font-weight="400">1.00&#215;</text>
<rect x="250" y="666" width="101" height="12" fill="#DEA584" rx="2"/>
<text x="357" y="676" font-size="10" fill="#57606a" text-anchor="start" font-weight="400">1.00&#215;</text>
<rect x="250" y="680" width="104" height="12" fill="#94A3B8" rx="2"/>
<text x="360" y="690" font-size="10" fill="#57606a" text-anchor="start" font-weight="400">1.02&#215;</text>
<line x1="351" y1="70" x2="351" y2="700" stroke="#d0d7de" stroke-dasharray="3,3"/>
<text x="351" y="64" font-size="10" fill="#8b949e" text-anchor="middle" font-weight="400">1.00&#215; (clang)</text>
<text x="20" y="728" font-size="10" fill="#8b949e" text-anchor="start" font-weight="400">Generated by `pixi run chart` from build/bench_results.csv</text>
</svg>
